<?xml version="1.0" standalone="no"?>
<!DOCTYPE svg PUBLIC "-//W3C//DTD SVG 20010904//EN"
 "http://www.w3.org/TR/2001/REC-SVG-20010904/DTD/svg10.dtd">
<svg version="1.0" xmlns="http://www.w3.org/2000/svg"
 width="500.000000pt" height="500.000000pt" viewBox="0 0 500.000000 500.000000"
 preserveAspectRatio="xMidYMid meet">

<g transform="translate(0.000000,500.000000) scale(0.100000,-0.100000)"
fill="#000000" stroke="none">
<path d="M1673 2954 c-8 -21 13 -42 28 -27 13 13 5 43 -11 43 -6 0 -13 -7 -17
-16z m27 -9 c0 -8 -4 -15 -10 -15 -5 0 -10 7 -10 15 0 8 5 15 10 15 6 0 10 -7
10 -15z"/>
<path d="M1107 2934 c-13 -13 -7 -52 8 -58 27 -10 46 5 43 33 -3 26 -35 41
-51 25z m40 -20 c8 -21 -13 -42 -28 -27 -13 13 -5 43 11 43 6 0 13 -7 17 -16z"/>
<path d="M745 2880 c-4 -6 25 -10 79 -10 l86 0 0 -311 0 -310 -30 -44 c-16
-24 -30 -48 -30 -54 0 -17 492 -10 498 7 3 9 -48 12 -233 12 l-236 0 21 30 21
29 127 3 c166 4 169 22 5 26 l-123 3 0 214 0 215 146 0 c94 0 143 4 139 10 -4
6 -63 10 -146 10 l-139 0 0 90 0 90 -89 0 c-50 0 -93 -4 -96 -10z"/>
<path d="M1640 2771 c0 -15 6 -21 21 -21 25 0 22 33 -4 38 -12 2 -17 -3 -17
-17z m30 -1 c0 -5 -4 -10 -10 -10 -5 0 -10 5 -10 10 0 6 5 10 10 10 6 0 10 -4
10 -10z"/>
<path d="M1265 2700 c-4 -6 25 -10 80 -10 55 0 84 4 80 10 -3 6 -39 10 -80 10
-41 0 -77 -4 -80 -10z"/>
<path d="M1475 2700 c-4 -6 14 -10 47 -10 30 0 59 -5 66 -12 9 -9 12 -68 12
-205 0 -122 4 -193 10 -193 12 0 14 379 2 396 -20 30 -122 48 -137 24z"/>
<path d="M3200 2643 c-40 -13 -60 -28 -69 -54 -13 -39 4 -85 38 -104 l26 -14
-39 -1 c-37 0 -38 -1 -31 -27 10 -45 47 -75 96 -80 55 -5 89 12 111 57 l18 35
0 -47 0 -48 45 0 45 0 0 50 c0 49 1 50 30 50 29 0 30 -1 30 -51 l0 -50 48 3
47 3 5 44 5 44 15 -27 c17 -33 77 -66 120 -66 50 0 116 45 133 90 3 8 6 -9 6
-37 l1 -53 50 0 50 0 0 44 c0 42 1 44 36 49 55 9 84 41 84 94 0 61 -30 89
-101 98 -30 4 -68 5 -84 3 -28 -3 -30 -7 -36 -53 -3 -27 -7 -45 -7 -38 -1 6
-14 25 -28 42 -53 63 -155 62 -213 -4 l-30 -34 -3 42 -3 42 -45 0 -45 0 -3
-47 c-3 -46 -5 -48 -33 -48 -28 0 -29 1 -29 50 l0 50 -45 0 -45 0 0 -97 c-1
-86 -2 -95 -13 -70 -7 16 -23 35 -37 42 l-25 14 33 1 c27 0 32 4 32 23 0 55
-79 101 -140 80z m94 -34 c14 -11 26 -27 26 -35 0 -17 -43 -19 -69 -2 -20 12
-51 5 -51 -12 0 -6 25 -22 54 -35 65 -29 83 -54 66 -95 -6 -15 -22 -33 -35
-40 -34 -18 -105 -7 -127 20 -26 32 -22 40 17 40 19 0 35 -4 35 -10 0 -5 11
-10 25 -10 18 0 25 5 25 19 0 13 -14 24 -45 35 -75 29 -95 77 -50 121 31 32
91 34 129 4z m126 -29 l0 -50 50 0 50 0 0 50 c0 49 1 50 30 50 l30 0 0 -125 0
-125 -30 0 c-29 0 -30 1 -30 50 l0 50 -50 0 -50 0 0 -50 c0 -47 -2 -50 -25
-50 l-25 0 0 125 0 125 25 0 c23 0 25 -3 25 -50z m379 36 c41 -22 61 -58 61
-114 0 -83 -57 -130 -143 -119 -78 11 -125 95 -93 170 27 66 111 96 175 63z
m235 4 c62 -23 72 -106 16 -135 -16 -8 -43 -15 -60 -15 -29 0 -30 -2 -30 -45
0 -43 -1 -45 -30 -45 l-30 0 0 125 0 125 54 0 c30 0 66 -4 80 -10z m-794 -170
c0 -5 -2 -10 -4 -10 -3 0 -8 5 -11 10 -3 6 -1 10 4 10 6 0 11 -4 11 -10z"/>
<path d="M3695 2555 c-14 -13 -25 -36 -25 -50 0 -30 41 -75 68 -75 36 0 64 32
64 75 0 69 -61 97 -107 50z m81 -20 c35 -54 -25 -114 -70 -69 -32 32 -10 94
34 94 11 0 27 -11 36 -25z"/>
<path d="M3960 2550 c0 -27 3 -30 30 -30 34 0 49 22 30 45 -7 8 -23 15 -36 15
-20 0 -24 -5 -24 -30z m50 0 c0 -5 -7 -10 -15 -10 -8 0 -15 5 -15 10 0 6 7 10
15 10 8 0 15 -4 15 -10z"/>
<path d="M1868 2614 c-78 -42 -76 -178 2 -219 88 -45 190 13 190 110 0 97
-105 157 -192 109z m107 -59 c32 -31 32 -69 -1 -101 -43 -44 -104 -14 -104 50
0 36 7 48 35 64 30 17 43 15 70 -13z"/>
<path d="M2097 2623 c-4 -3 -7 -60 -7 -125 l0 -118 30 0 30 0 0 70 c0 39 3 70
8 70 4 0 27 -32 52 -70 40 -63 48 -70 78 -70 l32 0 0 125 0 125 -30 0 -29 0
-3 -77 -3 -77 -50 77 c-41 63 -55 77 -76 77 -14 0 -29 -3 -32 -7z"/>
<path d="M2360 2505 l0 -125 70 0 c68 0 70 1 70 25 0 23 -4 25 -40 25 l-40 0
0 100 0 100 -30 0 -30 0 0 -125z"/>
<path d="M2530 2505 l0 -125 30 0 30 0 0 125 0 125 -30 0 -30 0 0 -125z"/>
<path d="M2637 2623 c-4 -3 -7 -60 -7 -125 l0 -118 30 0 30 0 0 70 c0 39 3 70
8 70 4 0 27 -32 52 -70 40 -63 48 -70 78 -70 l32 0 0 125 0 125 -30 0 -29 0
-3 -77 -3 -77 -50 77 c-41 63 -55 77 -76 77 -14 0 -29 -3 -32 -7z"/>
<path d="M2900 2505 l0 -125 75 0 c73 0 75 1 75 25 0 23 -4 25 -45 25 -41 0
-45 2 -45 25 0 23 4 25 40 25 36 0 40 3 40 25 0 23 -4 25 -40 25 -36 0 -40 3
-40 25 0 23 4 25 45 25 41 0 45 2 45 25 0 24 -2 25 -75 25 l-75 0 0 -125z"/>
<path d="M1075 2599 c-10 -26 -1 -259 10 -259 14 0 19 250 6 263 -7 7 -12 5
-16 -4z"/>
<path d="M1200 2470 c0 -87 4 -140 10 -140 6 0 10 53 10 140 0 87 -4 140 -10
140 -6 0 -10 -53 -10 -140z"/>
<path d="M1320 2470 c0 -87 4 -140 10 -140 6 0 10 53 10 140 0 87 -4 140 -10
140 -6 0 -10 -53 -10 -140z"/>
<path d="M1440 2470 c0 -87 4 -140 10 -140 6 0 10 53 10 140 0 87 -4 140 -10
140 -6 0 -10 -53 -10 -140z"/>
<path d="M1203 2248 c3 -10 48 -13 182 -13 134 0 179 3 183 13 3 9 -38 12
-183 12 -145 0 -186 -3 -182 -12z"/>
<path d="M1850 2210 c0 -49 1 -50 30 -50 17 0 30 5 30 10 0 6 -9 10 -20 10
-27 0 -25 18 3 23 l22 4 -22 8 c-28 9 -30 25 -3 25 11 0 20 5 20 10 0 6 -13
10 -30 10 -29 0 -30 -1 -30 -50z"/>
<path d="M2039 2214 c-12 -25 -17 -49 -13 -52 3 -4 9 -1 11 6 6 15 35 16 51 0
6 -6 14 -9 17 -6 6 6 -31 98 -40 98 -3 0 -15 -21 -26 -46z m31 -4 c0 -5 -5
-10 -11 -10 -5 0 -7 5 -4 10 3 6 8 10 11 10 2 0 4 -4 4 -10z"/>
<path d="M2233 2253 c-23 -9 -15 -42 12 -49 14 -3 25 -11 25 -16 0 -6 -11 -7
-26 -4 -19 5 -25 3 -22 -6 3 -7 18 -13 34 -13 22 0 30 5 32 22 3 17 -3 24 -22
29 -14 3 -26 11 -26 16 0 6 11 7 25 4 27 -7 35 8 9 18 -18 7 -23 7 -41 -1z"/>
<path d="M2414 2235 c9 -13 16 -36 16 -50 0 -16 6 -25 15 -25 9 0 15 9 15 25
0 14 7 37 16 50 18 27 4 35 -16 10 -12 -14 -15 -14 -30 0 -25 23 -34 18 -16
-10z"/>
<path d="M2740 2245 c-10 -12 -10 -18 0 -30 7 -8 18 -15 26 -15 7 0 16 -5 20
-12 5 -8 -2 -9 -25 -5 -24 5 -31 3 -28 -6 2 -6 19 -12 38 -12 27 0 34 4 34 20
0 11 -10 24 -22 30 -32 14 -29 27 5 19 24 -7 26 -6 13 9 -17 21 -45 22 -61 2z"/>
<path d="M2936 2244 c-19 -18 -21 -55 -4 -72 19 -19 55 -14 72 10 20 29 20 34
-4 58 -24 24 -43 25 -64 4z m49 -35 c0 -15 -7 -25 -18 -27 -22 -4 -33 24 -17
43 18 21 35 13 35 -16z"/>
<path d="M3130 2210 c0 -47 2 -50 25 -50 14 0 25 5 25 10 0 6 -7 10 -15 10
-11 0 -15 11 -15 40 0 22 -4 40 -10 40 -5 0 -10 -22 -10 -50z"/>
<path d="M3296 2253 c-11 -11 -7 -58 7 -77 8 -11 23 -17 38 -14 21 3 24 9 27
51 2 28 -1 47 -7 47 -6 0 -11 -18 -11 -40 0 -29 -4 -40 -15 -40 -10 0 -15 10
-15 34 0 34 -11 52 -24 39z"/>
<path d="M3480 2251 c0 -5 7 -11 15 -15 9 -3 15 -19 15 -41 0 -19 5 -35 10
-35 6 0 10 18 10 40 0 22 5 40 10 40 6 0 10 5 10 10 0 6 -16 10 -35 10 -19 0
-35 -4 -35 -9z"/>
<path d="M3660 2210 c0 -27 5 -50 10 -50 6 0 10 23 10 50 0 28 -4 50 -10 50
-5 0 -10 -22 -10 -50z"/>
<path d="M3818 2249 c-21 -12 -24 -59 -6 -77 7 -7 21 -12 33 -12 12 0 26 5 33
12 19 19 15 66 -7 78 -24 12 -31 12 -53 -1z m50 -43 c-2 -13 -10 -21 -23 -21
-23 0 -33 34 -14 45 20 13 40 -1 37 -24z"/>
<path d="M4010 2210 c0 -27 5 -50 10 -50 6 0 10 12 10 28 l1 27 15 -27 c22
-42 34 -34 34 22 0 28 -4 50 -10 50 -5 0 -10 -12 -10 -27 l-1 -28 -17 28 c-24
39 -32 34 -32 -23z"/>
<path d="M1415 2160 c-10 -16 17 -21 85 -18 40 2 65 8 68 16 5 15 -143 17
-153 2z"/>
<path d="M1642 2158 c5 -15 48 -18 48 -3 0 6 -11 11 -26 13 -18 3 -25 0 -22
-10z"/>
<path d="M1010 2120 c0 -5 8 -10 18 -10 10 0 28 -9 41 -21 12 -12 25 -18 29
-14 10 10 -46 55 -69 55 -10 0 -19 -4 -19 -10z"/>
<path d="M962 2113 c-23 -9 -44 -64 -38 -99 14 -70 111 -100 161 -49 24 23 36
83 15 70 -5 -3 -10 -13 -10 -21 0 -26 -38 -54 -74 -54 -68 0 -99 88 -46 132
29 24 25 35 -8 21z"/>
<path d="M1390 2092 c-33 -34 -38 -67 -15 -111 29 -57 115 -65 155 -14 20 26
28 79 10 68 -5 -3 -10 -15 -10 -25 0 -24 -46 -60 -77 -60 -31 0 -73 42 -73 74
0 13 12 39 26 56 35 41 23 51 -16 12z"/>
</g>
</svg>
